<svg xmlns="http://www.w3.org/2000/svg" xmlns:xlink="http://www.w3.org/1999/xlink" width="191.046" height="23.978" viewBox="0 0 191.046 23.978">
  <defs fill="#ffffff">
    <clipPath id="clip-path" fill="#ffffff">
      <rect id="Rectangle_1" data-name="Rectangle 1" width="191.046" height="23.978" fill="#ffffff"/>
    </clipPath>
  </defs>
  <g id="Group_3" data-name="Group 3" transform="translate(0 -0.001)">
    <g id="Group_1" data-name="Group 1" transform="translate(0 0)" clip-path="url(#clip-path)">
      <path id="Path_1" data-name="Path 1" d="M151.78,12c0,4.707,6.621,8.532,14.8,8.532,8.15,0,14.772-3.825,14.772-8.532s-6.622-8.543-14.772-8.543c-8.18,0-14.8,3.825-14.8,8.543m-9.588-.024C142.191,5.362,153.143,0,166.626,0s24.419,5.362,24.419,11.975-10.936,11.987-24.419,11.987S142.191,18.6,142.191,11.975M97.442.024h17.529V3.67h-1.693l8.988,6.8a2.022,2.022,0,0,0,2.547,0l7.147-6.8h-1.738V.024H142.4V3.67h-3.671L126.88,14.227v4.885c-.1,1.06.345,1.657,1.333,1.763h3.341l-.014,3.05H111.959v-3.05h2.787c1.333,0,1.977-.512,1.933-1.549V14.251L101.457,3.741H97.442Zm-46.831,0h43.34V8.067H89.382V4.945c0-1.06-.839-1.394-2.172-1.442H67.345c-1.708-.036-2.547.333-2.456,1.072V8.96a1.572,1.572,0,0,0,1.677,1.513h6.577c1.258-.024,1.977-.417,1.948-1.156V8.436H79.3v7.483H75.09v-.8c0-1.155-.734-1.417-2.068-1.417H66.776c-1.259.048-1.9.512-1.888,1.417V19.2c-.015,1.12.554,1.5,2.022,1.5h20.9c1.033.024,1.542-.393,1.572-1.239V16.443h4.569v7.483H50.611V20.614h3.266c1.064,0,1.483-.345,1.6-1.287V4.862c-.1-.894-.539-1.418-1.828-1.454H50.611ZM44.933,7.59H41.247C39.84,5.29,37.008,3.253,27.27,3.253,4.2,2.907,1.4,20.518,27.375,20.518c8.39,0,12.09-1.954,14.068-4.3h3.491v7.709H41.442a3.706,3.706,0,0,0-4.06-.941c-49.393,7.4-50.292-29.216,0-22.032a4.118,4.118,0,0,0,4.06-.929h3.491Z" transform="translate(0 0)" fill-rule="evenodd" fill="#ffffff"/>
    </g>
  </g>
</svg>