<svg id="svg2" xmlns:rdf="http://www.w3.org/1999/02/22-rdf-syntax-ns#" xmlns="http://www.w3.org/2000/svg" height="150" viewBox="0 0 500.00001 150" width="500" version="1.1" xmlns:cc="http://creativecommons.org/ns#" xmlns:dc="http://purl.org/dc/elements/1.1/">
	<defs id="defs5014">
		<clipPath id="clipPath6030" clipPathUnits="userSpaceOnUse">
			<path id="path6032" d="m0 153.07h266.46v-153.07h-266.46v153.07z"/>
		</clipPath>
	</defs>
	<g id="g6026" transform="matrix(1.9994 0 0 -1.9994 -16.38 228.03)">
		<g id="g6028" clip-path="url(#clipPath6030)">
			<g id="g6034" transform="translate(48.938 49.515)">
				<path id="path6036" d="m0 0v0.709 1.911c-0.004 0.494 0.159 0.878 0.483 1.152 0.328 0.279 0.841 0.418 1.539 0.422 0.701-0.004 1.212-0.143 1.539-0.422 0.329-0.274 0.488-0.658 0.485-1.152v-1.911-0.709-1.912c0.003-0.493-0.156-0.877-0.485-1.152-0.327-0.278-0.838-0.418-1.539-0.421-0.698 0.003-1.211 0.143-1.539 0.421-0.324 0.275-0.487 0.659-0.483 1.152v1.912zm6.854 0v0.709 2.155c0.004 0.41-0.06 0.813-0.19 1.204 0.687 0.124 1.404 0.216 1.998-0.057 0.252-0.116 0.426-0.288 0.524-0.513 0.098-0.226 0.14-0.503 0.14-0.827v-8.648h2.811v9.415c0 0.425-0.074 0.831-0.229 1.218-0.154 0.387-0.392 0.731-0.726 1.037-1.714 1.552-4.397 0.911-6.535 0.511-0.122 0.053-0.25 0.104-0.383 0.15-0.615 0.215-1.365 0.325-2.242 0.332-0.877-0.007-1.623-0.117-2.241-0.332-0.615-0.215-1.114-0.505-1.495-0.871-0.381-0.362-0.659-0.77-0.837-1.223-0.175-0.453-0.262-0.918-0.259-1.396v-2.155-0.709-2.155c-0.003-0.478 0.084-0.944 0.259-1.396 0.178-0.453 0.456-0.862 0.837-1.223 0.381-0.366 0.88-0.657 1.495-0.872 0.618-0.215 1.364-0.325 2.241-0.331 0.877 0.006 1.627 0.116 2.242 0.331s1.115 0.506 1.496 0.872c0.381 0.361 0.662 0.77 0.836 1.223 0.174 0.452 0.262 0.918 0.258 1.396v2.155z" fill="#231f20"/>
			</g>
			<g id="g6038" transform="translate(68.979 52.134)">
				<path id="path6040" d="m0 0c0.001 0.554 0.032 1.439-0.138 2.004-0.397 1.322-2.78 0.301-2.798 2.078h-2.685c-0.02-2.636 2.148-2.221 2.455-2.647 0.156-0.216 0.211-0.767 0.226-1.304-0.395-0.056-0.754-0.141-1.079-0.254-0.606-0.212-1.099-0.5-1.475-0.859-0.375-0.359-0.652-0.761-0.826-1.208-0.174-0.446-0.256-0.907-0.256-1.377v-1.258c0-0.471 0.082-0.931 0.256-1.377s0.45-0.848 0.826-1.208c0.376-0.361 0.869-0.647 1.475-0.86 0.611-0.212 1.347-0.32 2.213-0.326 0.866 0.006 1.605 0.114 2.212 0.326 0.607 0.213 1.101 0.499 1.477 0.86 0.375 0.36 0.652 0.762 0.825 1.208 0.173 0.447 0.256 0.906 0.256 1.377v1.258c0 0.471-0.084 0.93-0.256 1.377-0.173 0.447-0.45 0.849-0.825 1.208-0.377 0.359-0.87 0.647-1.477 0.859-0.13 0.046-0.264 0.086-0.406 0.123m0.19-4.584c0-0.486-0.154-0.865-0.477-1.138-0.324-0.272-0.828-0.412-1.519-0.416-0.69 0.004-1.196 0.143-1.519 0.416-0.321 0.272-0.478 0.651-0.478 1.138v0.776c0 0.487 0.157 0.867 0.478 1.137 0.323 0.275 0.829 0.416 1.519 0.416 0.691 0 1.195-0.143 1.519-0.416 0.323-0.271 0.477-0.65 0.477-1.137v-0.776z" fill="#231f20"/>
			</g>
			<g id="g6042" transform="translate(83.108 49.5)">
				<path id="path6044" d="m0 0v0.707 2.15c0.004 0.477-0.084 0.942-0.258 1.393-0.175 0.451-0.455 0.859-0.835 1.221-0.38 0.364-0.878 0.654-1.491 0.869-0.614 0.215-1.361 0.323-2.236 0.33-0.876-0.007-1.62-0.115-2.237-0.33-0.613-0.215-1.111-0.505-1.492-0.869-0.38-0.362-0.656-0.77-0.834-1.221-0.175-0.451-0.262-0.916-0.259-1.393v-2.15-0.707-5.962h2.803v5.962 0.707 0.954 0.953c-0.003 0.493 0.159 0.876 0.484 1.151 0.326 0.276 0.837 0.417 1.535 0.42 0.697-0.003 1.208-0.144 1.535-0.42 0.327-0.275 0.486-0.658 0.482-1.151v-0.953-0.954-0.707-5.962h2.803v5.962z" fill="#231f20"/>
			</g>
			<g id="g6046" transform="translate(93.292 55.628)">
				<path id="path6048" d="m0 0v-5.786h-2.606v3.771c-0.238 0.031-0.444 0.052-0.622 0.072-0.179 0.014-0.349 0.024-0.509 0.03-0.163 0.006-0.332 0.009-0.514 0.009-0.46-0.003-0.814-0.083-1.066-0.241-0.253-0.156-0.432-0.369-0.531-0.634-0.098-0.262-0.144-0.557-0.141-0.881v-4.234c-0.003-0.323 0.043-0.609 0.141-0.862 0.099-0.253 0.278-0.453 0.531-0.599 0.252-0.144 0.606-0.217 1.066-0.221 0.224 0 0.486 0.007 0.785 0.022 0.302 0.015 0.616 0.037 0.949 0.065 0.33 0.024 0.657 0.055 0.98 0.092 0.323 0.038 0.619 0.074 0.891 0.118l0.332-2.423c-0.354-0.068-0.746-0.132-1.174-0.191-0.425-0.058-0.875-0.105-1.343-0.141-0.469-0.037-0.943-0.056-1.42-0.056-0.999 0.003-1.834 0.16-2.503 0.472-0.665 0.31-1.167 0.748-1.503 1.312-0.336 0.561-0.506 1.223-0.506 1.988v5.139c0 0.751 0.17 1.408 0.506 1.971 0.336 0.564 0.838 1.005 1.503 1.319 0.669 0.315 1.504 0.475 2.503 0.481 0.714 0 1.432-0.049 2.152-0.151 0.722-0.099 1.421-0.247 2.099-0.441" fill="#231f20"/>
			</g>
			<g id="g6050" transform="translate(104.46 49.5)">
				<path id="path6052" d="m0 0v0.707 2.15c0.004 0.477-0.084 0.942-0.258 1.393-0.175 0.451-0.455 0.859-0.835 1.221-0.38 0.364-0.879 0.654-1.492 0.869s-1.36 0.323-2.235 0.33c-0.876-0.007-1.62-0.115-2.237-0.33-0.614-0.215-1.112-0.505-1.492-0.869-0.38-0.362-0.657-0.77-0.835-1.221-0.175-0.451-0.26-0.916-0.258-1.393v-2.15-0.707-5.962h2.803v5.962 0.707 0.954 0.953c-0.003 0.493 0.159 0.876 0.483 1.151 0.327 0.276 0.837 0.417 1.536 0.42 0.697-0.003 1.208-0.144 1.535-0.42 0.327-0.275 0.485-0.658 0.482-1.151v-0.953-0.954-0.707-5.962h2.803v5.962z" fill="#231f20"/>
			</g>
			<g id="g6054" transform="translate(114.74 44.136)">
				<path id="path6056" d="m0 0v5.849h-2.635v-3.812c-0.24-0.031-0.448-0.053-0.629-0.072-0.18-0.016-0.352-0.024-0.514-0.031-0.165-0.006-0.336-0.009-0.52-0.009-0.464 0.003-0.822 0.084-1.077 0.243-0.256 0.158-0.437 0.373-0.536 0.642-0.1 0.263-0.147 0.563-0.144 0.89v3.128 5.19l-2.802 0.016v-8.82c0-0.759 0.17-1.424 0.51-1.993 0.339-0.571 0.848-1.016 1.52-1.333 0.676-0.318 1.519-0.48 2.529-0.486 0.723 0 1.448 0.05 2.177 0.153 0.728 0.099 1.435 0.249 2.121 0.445" fill="#231f20"/>
			</g>
			<g id="g6058" transform="translate(125.81 49.5)">
				<path id="path6060" d="m0 0v0.707 2.15c0.003 0.477-0.084 0.942-0.258 1.393-0.175 0.451-0.455 0.859-0.835 1.221-0.38 0.364-0.879 0.654-1.492 0.869s-1.361 0.323-2.236 0.33c-0.875-0.007-1.619-0.115-2.237-0.33-0.613-0.215-1.111-0.505-1.491-0.869-0.38-0.362-0.657-0.77-0.835-1.221-0.175-0.451-0.261-0.916-0.259-1.393v-2.15-0.707-5.962h2.803v5.962 0.707 0.954 0.953c-0.003 0.493 0.159 0.876 0.484 1.151 0.327 0.276 0.838 0.417 1.535 0.42 0.698-0.003 1.209-0.144 1.535-0.42 0.327-0.275 0.486-0.658 0.483-1.151v-0.953-0.954-0.707-5.962h2.803v5.962z" fill="#231f20"/>
			</g>
			<g id="g6062" transform="translate(140.21 46.847)">
				<path id="path6064" d="m0 0c0-0.292-0.074-0.517-0.209-0.672-0.137-0.156-0.32-0.262-0.555-0.32-0.234-0.055-0.496-0.083-0.789-0.08h-1.214c-0.459 0-0.825 0.062-1.099 0.185-0.275 0.123-0.472 0.302-0.592 0.536-0.12 0.235-0.176 0.74-0.176 1.073v8.467h-2.773v-8.727c-0.003-0.471 0.077-0.93 0.237-1.377 0.16-0.446 0.419-0.848 0.779-1.208 0.362-0.36 0.839-0.647 1.434-0.859 0.595-0.213 1.324-0.321 2.19-0.327h1.973c0.819 0.003 1.49 0.129 2.018 0.376 0.526 0.247 0.918 0.589 1.171 1.029 0.255 0.441 0.381 0.953 0.378 1.535v3.281c0 0.386-0.084 0.734-0.243 1.045-0.161 0.314-0.376 0.576-0.646 0.789-0.272 0.212-0.58 0.357-0.922 0.441 0.486 0.211 0.835 0.477 1.051 0.797 0.216 0.321 0.317 0.7 0.317 1.144v0.721c0 0.557-0.109 1.038-0.339 1.438-0.231 0.403-0.604 0.712-1.122 0.931-0.514 0.218-1.198 0.33-2.052 0.33h-1.584v-2.237h1.214c0.386 0 0.669-0.081 0.848-0.235 0.176-0.15 0.262-0.364 0.262-0.635v-0.536c0-0.255-0.093-0.462-0.278-0.622-0.184-0.16-0.462-0.246-0.832-0.246h-1.214v-2.163h1.603c0.373 0 0.658-0.088 0.859-0.263 0.2-0.172 0.305-0.43 0.305-0.772v-2.839z" fill="#231f20"/>
			</g>
			<g id="g6066" transform="translate(170.86 55.661)">
				<path id="path6068" d="m0 0v-5.849h2.635v3.094 0.718 0.284h0.15c0.389 0 0.677-0.081 0.857-0.236 0.175-0.152 0.264-0.369 0.264-0.642v-5.275-0.872c0-0.296-0.076-0.523-0.212-0.679-0.137-0.158-0.324-0.265-0.561-0.324-0.236-0.057-0.5-0.084-0.797-0.081h-1.228c-0.463 0-0.834 0.062-1.111 0.187-0.276 0.124-0.476 0.305-0.598 0.542s-0.177 0.747-0.177 1.083v6.456h-2.803v-6.718c0-0.475 0.077-0.94 0.239-1.391 0.162-0.452 0.424-0.858 0.788-1.221 0.365-0.365 0.848-0.654 1.449-0.869 0.6-0.215 1.338-0.324 2.213-0.33h1.995c0.829 0.003 1.506 0.131 2.04 0.38 0.532 0.249 0.927 0.595 1.182 1.04 0.259 0.445 0.387 0.963 0.384 1.551v1.246 5.686c0 0.564-0.11 1.05-0.343 1.454-0.233 0.408-0.611 0.72-1.134 0.942-0.519 0.219-1.211 0.333-2.074 0.333h-0.523-0.002-0.021v-0.002c-0.163-0.019-0.327-0.038-0.491-0.062-0.728-0.099-1.435-0.249-2.121-0.445" fill="#231f20"/>
			</g>
			<g id="g6070" transform="translate(190.52 44.103)">
				<path id="path6072" d="m0 0v5.525h2.488v-3.754c0.443-0.061 0.899-0.093 1.369-0.094 0.338-0.001 0.616 0.016 0.827 0.055 0.214 0.041 0.378 0.107 0.494 0.201 0.117 0.094 0.197 0.22 0.241 0.385 0.044 0.162 0.061 4.988 0.062 5.235 0.001 0.261-0.009 0.473-0.039 0.638-0.028 0.166-0.106 0.296-0.229 0.403-0.121 0.105-0.317 0.202-0.588 0.286-0.271 0.083-0.645 0.177-1.121 0.279-0.565 0.121-1.042 0.245-1.43 0.379-0.389 0.134-0.705 0.29-0.947 0.469-0.24 0.177-0.428 0.391-0.556 0.646-0.128 0.254-0.218 0.563-0.264 0.927-0.022 0.164-0.038 0.344-0.05 0.537h2.675c0.033-0.148 0.103-0.268 0.212-0.357 0.118-0.095 0.307-0.182 0.569-0.259 0.262-0.078 0.621-0.169 1.08-0.276 0.632-0.149 1.153-0.3 1.568-0.454 0.411-0.152 0.739-0.32 0.979-0.505 0.239-0.185 0.417-0.404 0.53-0.651 0.112-0.247 0.185-0.542 0.217-0.883 0.032-0.337 0.042-0.738 0.042-1.197 0-0.465-0.032-5.509-0.107-5.879-0.075-0.371-0.206-0.697-0.387-0.974-0.183-0.279-0.44-0.508-0.766-0.694-0.323-0.184-0.738-0.324-1.238-0.415-0.401-0.073-0.868-0.118-1.403-0.132v-0.003l-0.168-0.003-0.107 0.001h-0.021l-0.111-0.001c-0.355 0-0.712 0.02-1.067 0.057l-0.01 0.002c-0.246 0.022-0.493 0.05-0.741 0.085-0.689 0.095-1.357 0.235-2.003 0.421" fill="#231f20"/>
			</g>
			<g id="g6074" transform="translate(209.12 55.628)">
				<path id="path6076" d="m0 0v-5.786h-2.606v3.771c-0.238 0.031-0.444 0.052-0.623 0.072-0.178 0.014-0.347 0.024-0.507 0.03-0.164 0.006-0.333 0.009-0.515 0.009-0.46-0.003-0.814-0.083-1.066-0.241-0.253-0.156-0.432-0.369-0.531-0.634-0.098-0.262-0.144-0.557-0.141-0.881v-4.234c-0.003-0.323 0.043-0.609 0.141-0.862 0.099-0.253 0.278-0.453 0.531-0.599 0.252-0.144 0.606-0.217 1.066-0.221 0.225 0 0.486 0.007 0.785 0.022 0.302 0.015 0.616 0.037 0.949 0.065 0.329 0.024 0.656 0.055 0.98 0.092 0.324 0.038 0.619 0.074 0.891 0.118l0.332-2.423c-0.354-0.068-0.746-0.132-1.173-0.191-0.426-0.058-0.876-0.105-1.344-0.141-0.468-0.037-0.943-0.056-1.42-0.056-0.999 0.003-1.834 0.16-2.503 0.472-0.665 0.31-1.167 0.748-1.503 1.312-0.336 0.561-0.506 1.223-0.506 1.988v5.139c0 0.751 0.17 1.408 0.506 1.971 0.336 0.564 0.838 1.005 1.503 1.319 0.669 0.315 1.504 0.475 2.503 0.481 0.714 0 1.432-0.049 2.153-0.151 0.721-0.099 1.42-0.247 2.098-0.441" fill="#231f20"/>
			</g>
			<g id="g6078" transform="translate(220.29 49.5)">
				<path id="path6080" d="m0 0v0.707 2.15c0.004 0.477-0.084 0.942-0.258 1.393-0.175 0.451-0.455 0.859-0.835 1.221-0.38 0.364-0.879 0.654-1.492 0.869s-1.36 0.323-2.235 0.33c-0.876-0.007-1.62-0.115-2.237-0.33-0.614-0.215-1.112-0.505-1.492-0.869-0.38-0.362-0.657-0.77-0.835-1.221-0.174-0.451-0.261-0.916-0.258-1.393v-2.15-0.707-5.962h2.803v5.962 0.707 0.954 0.953c-0.003 0.493 0.159 0.876 0.483 1.151 0.327 0.276 0.838 0.417 1.536 0.42 0.697-0.003 1.208-0.144 1.535-0.42 0.327-0.275 0.485-0.658 0.482-1.151v-0.953-0.954-0.707-5.962h2.803v5.962z" fill="#231f20"/>
			</g>
			<g id="g6082" transform="translate(181.76 43.538)">
				<path id="path6084" d="m0 0v4.219c1.472 1.136 4.232 2.167 4.232-0.661v-3.558h2.774v4.039c0 3.769-4.101 4.994-7.006 2.681v1.764c0 0.325 0.044 0.611 0.143 0.863 0.097 0.253 0.276 0.453 0.529 0.598s0.606 0.219 1.066 0.222c0.225 0 0.487-0.007 0.785-0.022 0.302-0.015 0.617-0.037 0.95-0.064 0.329-0.025 0.656-0.056 0.979-0.093s0.619-0.074 0.891-0.117l0.333 2.422c-0.355 0.067-0.746 0.132-1.174 0.191-0.426 0.058-0.875 0.105-1.344 0.141-0.468 0.037-0.942 0.056-1.42 0.056-0.999-0.003-1.833-0.161-2.502-0.472-0.665-0.311-1.167-0.748-1.504-1.313-0.335-0.56-0.505-1.222-0.505-1.986v-1.692-5.786-1.432h2.773z" fill="#231f20"/>
			</g>
			<g id="g6086" transform="translate(151.91 48.649)">
				<path id="path6088" d="m0 0v-0.895-0.872c0-0.294-0.075-0.522-0.212-0.678-0.137-0.157-0.324-0.264-0.561-0.323-0.236-0.056-0.5-0.084-0.796-0.082h-1.228c-0.464 0-0.835 0.063-1.111 0.188-0.278 0.124-0.478 0.305-0.599 0.542-0.121 0.236-0.177 0.747-0.177 1.083v1.037h-2.803v-1.299c0-0.475 0.078-0.94 0.239-1.391 0.162-0.453 0.424-0.858 0.788-1.222 0.365-0.364 0.848-0.654 1.449-0.868 0.601-0.215 1.338-0.324 2.214-0.33h1.994c0.828 0.003 1.507 0.131 2.04 0.38 0.532 0.249 0.928 0.594 1.183 1.04 0.258 0.445 0.386 0.961 0.384 1.55v1.245 0.895 3.306 1.245c0.002 0.588-0.126 1.105-0.384 1.551-0.255 0.445-0.651 0.791-1.183 1.04-0.533 0.249-1.212 0.377-2.04 0.379h-1.994c-0.876-0.005-1.613-0.115-2.214-0.33-0.601-0.214-1.084-0.504-1.449-0.869-0.874-0.873-1.027-1.684-1.027-2.853h2.803c0 0.705 0.031 1.27 0.776 1.605 0.276 0.124 0.647 0.187 1.111 0.187h1.228c0.296 0.003 0.56-0.026 0.796-0.081 0.237-0.06 0.424-0.166 0.561-0.323s0.212-0.384 0.212-0.68v-0.871-3.306z" fill="#231f20"/>
			</g>
			<g id="g6090" transform="translate(156.11 51.86)">
				<path id="path6092" d="m0 0c0 0.856 0.145 1.57 0.423 2.136 0.277 0.564 0.674 1.011 1.186 1.337 0.515 0.326 1.131 0.555 1.845 0.691 1.859 0.355 4.007 0.201 5.859-0.122l-0.149-2.265c-1.491 0.235-3.394 0.454-4.878 0.102-0.514-0.122-0.892-0.33-1.131-0.628-0.237-0.299-0.351-0.708-0.351-1.231v-0.107-0.248-0.285c1.55 0.181 4.472 0.255 5.523-0.223 0.477-0.217 0.833-0.562 1.072-1.035 0.24-0.47 0.363-1.085 0.363-1.843v-0.396c0-0.06 0.001-0.119-0.001-0.179l0.002-0.214c0-0.475-0.078-0.941-0.241-1.391-0.161-0.453-0.423-0.858-0.788-1.222-0.364-0.363-0.847-0.653-1.448-0.868-0.6-0.215-1.339-0.324-2.214-0.33h-1.465c-0.828 0-1.507 0.131-2.04 0.38-0.532 0.249-0.927 0.594-1.182 1.04-0.259 0.445-0.387 0.962-0.384 1.55v1.246 0.894c0 1.07-0.001 2.141-0.001 3.211m2.804-3.385v-0.72-0.873c0-0.294 0.075-0.522 0.212-0.678 0.137-0.157 0.324-0.266 0.56-0.323 0.237-0.057 0.501-0.082 0.798-0.082h0.698c0.464 0 0.835 0.063 1.112 0.188 0.277 0.124 0.477 0.305 0.597 0.542 0.116 0.226 0.173 0.7 0.178 1.035v0.016 0.029 0.456c0 0.256-0.046 0.457-0.131 0.593-0.345 0.555-2.899 0.552-4.024-0.183" fill="#231f20"/>
			</g>
			<g id="g6094" transform="translate(61.71 90.703)">
				<path id="path6096" d="m0 0 1.223-1.107h59.32l1.203 1.107h-61.746z" fill-rule="evenodd" fill="#231f20"/>
			</g>
			<g id="g6098" transform="translate(57.682 96.503)">
				<path id="path6100" d="m0 0v-2.155l0.22-0.199h69.296l0.216 0.199v2.156l-69.732-0.001z" fill-rule="evenodd" fill="#231f20"/>
			</g>
			<g id="g6102" transform="translate(122.95 99.578)">
				<path id="path6104" d="m0 0 0.145-1.017h-61.098l0.152 1.017h60.801z" fill-rule="evenodd" fill="#231f20"/>
			</g>
			<g id="g6106" transform="translate(122.26 102.04)">
				<path id="path6108" d="m0 0 0.414-1.477h-60.232l0.437 1.477h59.381z" fill-rule="evenodd" fill="#b71e24"/>
			</g>
			<g id="g6110" transform="translate(63.992 106.62)">
				<path id="path6112" d="m0 0 0.807 2.917h55.5l0.805-2.917h-57.112z" fill-rule="evenodd" fill="#231f20"/>
			</g>
			<g id="g6114" transform="translate(121.57 104.94)">
				<path id="path6116" d="m0 0h-58.04l0.12 0.434h57.801l0.119-0.434z" fill-rule="evenodd" fill="#231f20"/>
			</g>
			<g id="g6118" transform="translate(59.738 92.488)">
				<path id="path6120" d="m0 0h65.655l0.668 0.615h-67.003l0.68-0.615z" fill-rule="evenodd" fill="#231f20"/>
			</g>
			<g fill-rule="evenodd">
				<path id="path6122" d="m220.29 74.172h-174.16v0.539h174.16v-0.539z" fill="#231f20"/>
				<path id="path6124" d="m220.29 70.887h-174.16v2.04h174.16v-2.04z" fill="#231f20"/>
				<path id="path6126" d="m220.29 69.102h-174.16v0.539h174.16v-0.539z" fill="#b71e24"/>
				<path id="path6128" d="m220.29 66.938h-174.16v1.458h174.16v-1.458z" fill="#231f20"/>
				<path id="path6130" d="m220.29 63.805h-174.16v1.521h174.16v-1.521z" fill="#b71e24"/>
				<path id="path6132" d="m220.29 60.9h-174.16v0.831h174.16v-0.831z" fill="#231f20"/>
			</g>
			<g id="g6134" transform="translate(148.87 89.915)">
				<path id="path6136" d="m0 0v3.124h-1.406v-2.037c-0.128-0.016-0.24-0.027-0.336-0.038-0.097-0.008-0.189-0.013-0.276-0.016-0.087-0.004-0.178-0.005-0.277-0.005-0.248 0.001-0.439 0.045-0.575 0.13-0.137 0.084-0.234 0.199-0.286 0.342-0.054 0.142-0.078 0.301-0.076 0.476v1.67 2.772l-1.497 0.009v-4.711c0-0.405 0.09-0.76 0.272-1.064s0.452-0.542 0.812-0.712c0.361-0.169 0.811-0.256 1.35-0.259 0.386 0 0.774 0.026 1.162 0.081 0.39 0.054 0.768 0.134 1.133 0.238" fill="#231f20"/>
			</g>
			<g id="g6138" transform="translate(150.13 89.896)">
				<path id="path6140" d="m0 0v2.939h1.323v-1.997c0.236-0.032 0.478-0.049 0.729-0.05 0.179 0 0.326 0.008 0.439 0.029 0.114 0.022 0.201 0.057 0.263 0.107s0.104 0.118 0.128 0.205c0.023 0.086 0.032 2.653 0.033 2.784 0.001 0.139-0.005 0.252-0.02 0.339-0.016 0.088-0.057 0.158-0.123 0.215-0.064 0.056-0.168 0.107-0.312 0.152-0.144 0.044-0.343 0.094-0.597 0.148-0.3 0.065-0.553 0.131-0.759 0.202-0.208 0.072-0.376 0.155-0.504 0.249s-0.228 0.209-0.296 0.345c-0.068 0.134-0.117 0.298-0.141 0.492-0.012 0.087-0.02 0.182-0.026 0.285h1.422c0.017-0.079 0.055-0.142 0.114-0.19 0.061-0.05 0.163-0.096 0.302-0.137 0.139-0.042 0.33-0.09 0.574-0.147 0.336-0.079 0.613-0.159 0.834-0.241 0.219-0.081 0.392-0.17 0.521-0.269 0.126-0.098 0.221-0.214 0.282-0.346 0.059-0.131 0.098-0.288 0.115-0.469s0.022-0.393 0.022-0.637c0-0.248-0.016-2.93-0.056-3.127s-0.111-0.371-0.206-0.518c-0.098-0.149-0.234-0.27-0.408-0.369-0.172-0.098-0.392-0.173-0.658-0.221-0.214-0.039-0.462-0.063-0.746-0.07v-0.002l-0.091-0.001h-0.055-0.012-0.059c-0.189 0-0.379 0.01-0.567 0.03l-0.006 0.001c-0.131 0.012-0.262 0.027-0.394 0.045-0.366 0.051-0.721 0.125-1.065 0.224" fill="#231f20"/>
			</g>
			<g id="g6142" transform="translate(155.71 93.596)">
				<path id="path6144" d="m0 0v-1.246h0.992c0.255 0.002 0.459-0.013 0.613-0.049 0.154-0.034 0.263-0.098 0.331-0.192 0.067-0.095 0.101-0.229 0.099-0.407v-0.355c0.004-0.195-0.076-0.337-0.234-0.426-0.16-0.088-0.415-0.132-0.768-0.13-0.145 0-0.268 0.001-0.374 0.008-0.102 0.005-0.197 0.012-0.283 0.024-0.086 0.01-0.176 0.023-0.267 0.04-0.092 0.017-0.201 0.036-0.322 0.06l-0.152-1.105c0.174-0.057 0.34-0.101 0.498-0.135 0.16-0.032 0.324-0.054 0.493-0.067 0.169-0.014 0.355-0.021 0.559-0.021 0.433 0.002 0.799 0.041 1.094 0.117 0.298 0.077 0.535 0.188 0.713 0.333 0.179 0.143 0.308 0.315 0.385 0.516 0.079 0.201 0.118 0.427 0.116 0.675v0.517c-0.001 0.233-0.047 0.433-0.133 0.604-0.087 0.171-0.208 0.309-0.358 0.415-0.15 0.107-0.32 0.182-0.511 0.226 0.312 0.138 0.537 0.323 0.677 0.552 0.139 0.23 0.208 0.495 0.204 0.795v0.476c0.002 0.253-0.035 0.475-0.109 0.665-0.076 0.189-0.197 0.348-0.364 0.475-0.167 0.126-0.388 0.221-0.663 0.285-0.275 0.062-0.613 0.094-1.011 0.094-0.198 0-0.379-0.007-0.548-0.02-0.171-0.013-0.338-0.034-0.505-0.061s-0.346-0.061-0.537-0.101l0.152-1.124c0.165 0.03 0.312 0.056 0.44 0.078 0.126 0.02 0.249 0.037 0.367 0.047 0.12 0.012 0.254 0.017 0.398 0.017 0.213 0.001 0.387-0.014 0.524-0.044 0.134-0.033 0.236-0.086 0.301-0.164 0.065-0.08 0.097-0.189 0.097-0.329v-0.284c0.002-0.141-0.016-0.26-0.049-0.358-0.034-0.097-0.093-0.175-0.175-0.234-0.085-0.059-0.2-0.102-0.348-0.128-0.149-0.027-0.336-0.039-0.563-0.039h-0.779z" fill="#231f20"/>
			</g>
			<g id="g6146" transform="translate(160.46 89.896)">
				<path id="path6148" d="m0 0v2.939h1.324v-1.997c0.235-0.032 0.478-0.049 0.728-0.05 0.179 0 0.327 0.008 0.439 0.029 0.114 0.022 0.202 0.057 0.263 0.107 0.062 0.05 0.104 0.118 0.129 0.205 0.022 0.086 0.032 2.653 0.032 2.784 0.001 0.139-0.005 0.252-0.02 0.339-0.015 0.088-0.057 0.158-0.123 0.215-0.063 0.056-0.168 0.107-0.312 0.152-0.144 0.044-0.343 0.094-0.596 0.148-0.301 0.065-0.554 0.131-0.76 0.202-0.208 0.072-0.375 0.155-0.504 0.249-0.128 0.094-0.228 0.209-0.295 0.345-0.069 0.134-0.117 0.298-0.142 0.492-0.011 0.087-0.019 0.182-0.026 0.285h1.423c0.017-0.079 0.054-0.142 0.113-0.19 0.062-0.05 0.163-0.096 0.302-0.137 0.139-0.042 0.331-0.09 0.574-0.147 0.337-0.079 0.614-0.159 0.834-0.241 0.22-0.081 0.393-0.17 0.521-0.269 0.127-0.098 0.222-0.214 0.282-0.346 0.059-0.131 0.098-0.288 0.116-0.469 0.016-0.181 0.021-0.393 0.021-0.637 0-0.248-0.016-2.93-0.056-3.127-0.039-0.197-0.11-0.371-0.206-0.518-0.097-0.149-0.234-0.27-0.407-0.369-0.173-0.098-0.392-0.173-0.659-0.221-0.213-0.039-0.462-0.063-0.746-0.07v-0.002l-0.09-0.001h-0.056-0.012-0.058c-0.189 0-0.379 0.01-0.567 0.03l-0.006 0.001c-0.131 0.012-0.263 0.027-0.394 0.045-0.367 0.051-0.721 0.125-1.066 0.224" fill="#231f20"/>
			</g>
			<g id="g6150" transform="translate(169.24 94.141)">
				<path id="path6152" d="m0 0v0.324c-0.009 0.019-0.018 0.037-0.026 0.053-0.028 0.051-0.055 0.088-0.082 0.111-0.029 0.023-0.058 0.037-0.093 0.043-0.033 0.005-0.073 0.006-0.119 0.006h-0.841c-0.066 0-0.122-0.009-0.166-0.029-0.045-0.021-0.078-0.059-0.1-0.116s-0.034-0.137-0.034-0.242 0.012-0.185 0.034-0.241 0.055-0.095 0.1-0.116c0.045-0.02 0.1-0.029 0.166-0.029h0.841c0.046 0 0.086 0.003 0.119 0.01 0.035 0.008 0.064 0.025 0.093 0.051 0.027 0.026 0.054 0.067 0.082 0.121 0.008 0.016 0.017 0.034 0.026 0.054m-3.233-4.226v2h1.407v-0.913c0.128-0.016 0.239-0.028 0.336-0.038 0.097-0.008 0.187-0.013 0.274-0.016 0.088-0.004 0.18-0.005 0.278-0.005 0.248 0.001 0.439 0.045 0.576 0.13 0.135 0.084 0.232 0.199 0.285 0.342 0.054 0.141 0.079 0.301 0.077 0.476v1.204c-0.017-0.007-0.032-0.013-0.049-0.018-0.08-0.027-0.167-0.038-0.259-0.038h-0.89c-0.158 0-0.299 0.021-0.421 0.065-0.123 0.044-0.227 0.116-0.312 0.213-0.084 0.097-0.148 0.226-0.192 0.386-0.044 0.161-0.066 0.357-0.066 0.588 0 0.232 0.022 0.428 0.066 0.588s0.108 0.289 0.192 0.387c0.085 0.097 0.189 0.169 0.312 0.213 0.122 0.044 0.263 0.065 0.421 0.065h0.89c0.099 0 0.188-0.011 0.268-0.037 0.014-0.005 0.027-0.009 0.04-0.015v0.841l1.497 0.009v-0.698c0.24-0.004 0.89-0.024 1.313-0.066v-0.801h-1.313v-0.972h1.313v-0.801c-0.423-0.041-1.072-0.062-1.313-0.065v-1.308c0-0.405-0.092-0.76-0.272-1.064-0.182-0.304-0.454-0.542-0.813-0.712-0.36-0.17-0.811-0.256-1.35-0.259-0.386 0-0.773 0.026-1.163 0.081-0.389 0.053-0.766 0.133-1.132 0.238" fill="#231f20"/>
			</g>
			<g id="g6154" transform="translate(184.29 92.78)">
				<path id="path6156" d="m0 0v0.378 0.509 0.509c0 0.873 0.933 1.065 1.464 0.614 0.173-0.146 0.26-0.351 0.258-0.614v-0.509-0.509-0.378-3.184h1.497v3.184 0.378 1.148c0.002 0.255-0.045 0.503-0.138 0.744-0.095 0.241-0.243 0.459-0.446 0.652-0.203 0.194-0.469 0.349-0.797 0.464-0.844 0.294-1.867 0.236-2.587-0.323-0.72 0.559-1.743 0.617-2.587 0.323-0.327-0.115-0.594-0.27-0.797-0.464-0.203-0.193-0.35-0.411-0.445-0.652-0.094-0.241-0.14-0.489-0.138-0.744v-1.148-0.378-3.184h1.496v3.184 0.378 0.509 0.509c-0.001 0.263 0.085 0.468 0.258 0.614 0.532 0.451 1.465 0.259 1.465-0.614v-0.509-0.509-0.378h1.497z" fill="#231f20"/>
			</g>
			<g id="g6158" transform="translate(195.24 90.804)">
				<path id="path6160" d="m0 0c-0.248 0-0.446 0.033-0.594 0.1-0.148 0.066-0.255 0.163-0.319 0.289-0.065 0.127-0.095 0.4-0.095 0.579v4.571h-1.497v-4.711c-0.002-0.254 0.042-0.502 0.128-0.743 0.087-0.241 0.227-0.457 0.421-0.652s0.452-0.349 0.773-0.464c0.322-0.115 0.715-0.173 1.183-0.176h1.064c0.443 0.001 0.805 0.069 1.09 0.203 0.284 0.132 0.495 0.318 0.632 0.555 0.138 0.238 0.206 0.514 0.204 0.828v1.772c0 0.207-0.045 0.395-0.131 0.563-0.087 0.17-0.203 0.312-0.349 0.426-0.147 0.115-0.313 0.193-0.497 0.238 0.262 0.115 0.45 0.258 0.566 0.431 0.117 0.173 0.172 0.378 0.172 0.617v0.39c0 0.3-0.059 0.56-0.183 0.776-0.125 0.218-0.326 0.384-0.605 0.502-0.278 0.118-0.648 0.179-1.109 0.179h-0.854v-1.208h0.655c0.208 0 0.362-0.044 0.458-0.126 0.094-0.082 0.141-0.197 0.141-0.343v-0.29c0-0.137-0.05-0.249-0.15-0.336-0.099-0.086-0.25-0.133-0.449-0.133h-0.655v-1.167h0.865c0.201 0 0.356-0.047 0.464-0.142 0.107-0.093 0.164-0.233 0.164-0.417v-1.532c0-0.158-0.04-0.279-0.112-0.363-0.074-0.084-0.173-0.141-0.3-0.173-0.126-0.03-0.268-0.044-0.426-0.043h-0.655z" fill="#231f20"/>
			</g>
			<g id="g6162" transform="translate(201.99 94.099)">
				<path id="path6164" d="m0 0c0.001 0.19-0.023 0.354-0.076 0.488-0.052 0.135-0.146 0.238-0.278 0.308-0.133 0.072-0.32 0.108-0.561 0.108-0.159 0-0.333-0.006-0.521-0.018-0.189-0.013-0.383-0.031-0.584-0.054-0.2-0.024-0.394-0.052-0.586-0.085l-0.207 1.288c0.322 0.069 0.637 0.121 0.946 0.156 0.308 0.034 0.626 0.051 0.952 0.051 0.549-0.004 1.001-0.089 1.354-0.256 0.352-0.167 0.614-0.402 0.783-0.701 0.169-0.3 0.254-0.649 0.252-1.05v-2.733c0.002-0.399-0.083-0.749-0.252-1.048-0.169-0.3-0.431-0.535-0.783-0.702-0.353-0.167-0.805-0.252-1.354-0.255-0.326 0-0.644 0.018-0.952 0.052-0.309 0.034-0.624 0.085-0.946 0.154l0.207 1.288c0.192-0.033 0.386-0.061 0.586-0.085 0.201-0.023 0.395-0.041 0.584-0.052 0.188-0.014 0.362-0.021 0.521-0.021 0.241 0 0.428 0.037 0.561 0.109 0.132 0.07 0.226 0.174 0.278 0.308 0.053 0.134 0.077 0.298 0.076 0.488v2.262z" fill="#231f20"/>
			</g>
			<g id="g6166" transform="translate(212.55 96.07)">
				<path id="path6168" d="m0 0v-3.123h1.407v1.652 0.384 0.151h0.08c0.208 0 0.362-0.043 0.457-0.126 0.095-0.081 0.142-0.197 0.142-0.343v-2.817-0.466c0-0.158-0.04-0.279-0.113-0.362-0.074-0.085-0.173-0.141-0.3-0.174-0.126-0.029-0.268-0.044-0.426-0.043h-0.655c-0.247 0-0.446 0.034-0.594 0.101-0.147 0.065-0.255 0.162-0.319 0.289-0.065 0.126-0.095 0.399-0.095 0.578v3.448h-1.497v-3.587c0-0.254 0.042-0.503 0.128-0.744 0.087-0.241 0.226-0.457 0.421-0.652 0.195-0.194 0.453-0.349 0.773-0.464 0.321-0.115 0.716-0.173 1.183-0.176h1.065c0.443 0.001 0.805 0.07 1.089 0.203s0.495 0.318 0.632 0.555c0.138 0.239 0.206 0.514 0.205 0.828v0.666 3.037c0 0.301-0.06 0.561-0.184 0.777-0.124 0.217-0.326 0.384-0.605 0.502-0.277 0.118-0.648 0.178-1.107 0.178h-0.28-0.001-0.011v-0.001c-0.087-0.01-0.174-0.02-0.262-0.033-0.39-0.053-0.767-0.133-1.133-0.238" fill="#231f20"/>
			</g>
			<g id="g6170" transform="translate(228.26 92.78)">
				<path id="path6172" d="m0 0v0.378 1.148c0.002 0.255-0.045 0.503-0.139 0.744-0.092 0.241-0.242 0.459-0.445 0.652-0.203 0.194-0.469 0.349-0.797 0.464-0.327 0.115-0.726 0.173-1.194 0.176-0.467-0.003-0.864-0.061-1.195-0.176-0.327-0.115-0.592-0.27-0.795-0.464-0.204-0.193-0.352-0.411-0.447-0.652-0.093-0.241-0.139-0.489-0.137-0.744v-1.148-0.378-3.184h1.497v3.184 0.378 0.509 0.509c-0.002 0.263 0.084 0.468 0.257 0.614 0.174 0.148 0.448 0.223 0.82 0.225 0.373-0.002 0.645-0.077 0.82-0.225 0.175-0.146 0.26-0.351 0.258-0.614v-0.509-0.509-0.378-3.184h1.497v3.184z" fill="#231f20"/>
			</g>
			<g id="g6174" transform="translate(174.68 89.596)">
				<path id="path6176" d="m0 0v2.244c0.783 0.604 2.252 1.152 2.252-0.352v-1.892h1.475v2.148c0 2.005-2.181 2.657-3.727 1.426v0.939c0 0.172 0.024 0.324 0.076 0.459 0.052 0.134 0.148 0.241 0.282 0.318s0.323 0.116 0.567 0.118c0.119 0 0.259-0.003 0.418-0.012 0.16-0.008 0.327-0.02 0.505-0.034 0.175-0.013 0.348-0.03 0.52-0.049 0.172-0.02 0.329-0.04 0.474-0.062l0.177 1.288c-0.188 0.036-0.397 0.07-0.624 0.101-0.226 0.031-0.465 0.056-0.715 0.075-0.249 0.02-0.501 0.03-0.755 0.03-0.531-0.002-0.975-0.085-1.331-0.251-0.354-0.165-0.62-0.398-0.8-0.698-0.178-0.298-0.269-0.651-0.269-1.057v-0.9-3.077-0.762h1.475z" fill="#231f20"/>
			</g>
			<g id="g6178" transform="translate(218.77 89.596)">
				<path id="path6180" d="m0 0v2.244c0.783 0.604 2.252 1.152 2.252-0.352v-1.892h1.474v2.148c0 2.005-2.18 2.657-3.726 1.426v0.939c0 0.172 0.023 0.324 0.076 0.459 0.052 0.134 0.148 0.241 0.281 0.318 0.135 0.077 0.324 0.116 0.568 0.118 0.119 0 0.259-0.003 0.418-0.012 0.16-0.008 0.327-0.02 0.505-0.034 0.174-0.013 0.348-0.03 0.52-0.049 0.172-0.02 0.33-0.04 0.474-0.062l0.176 1.288c-0.188 0.036-0.396 0.07-0.624 0.101-0.225 0.031-0.465 0.056-0.713 0.075-0.25 0.02-0.502 0.03-0.756 0.03-0.532-0.002-0.975-0.085-1.331-0.251-0.354-0.165-0.62-0.398-0.8-0.698-0.178-0.298-0.269-0.651-0.269-1.057v-0.9-3.077-0.762h1.475z" fill="#231f20"/>
			</g>
			<g id="g6182" transform="translate(204.66 93.841)">
				<path id="path6184" d="m0 0h-0.001v0.178c0 0.456 0.077 0.835 0.225 1.135 0.147 0.301 0.358 0.539 0.631 0.711 0.273 0.174 0.6 0.296 0.98 0.368 0.988 0.188 2.13 0.107 3.115-0.065l-0.08-1.204c-0.793 0.125-1.805 0.242-2.593 0.054-0.272-0.065-0.474-0.176-0.6-0.334-0.127-0.158-0.188-0.376-0.188-0.655v-0.056-0.132-0.151c0.825 0.095 2.378 0.135 2.937-0.119 0.253-0.115 0.442-0.299 0.569-0.55 0.128-0.25 0.194-0.577 0.194-0.98v-0.211c0-0.031 0-0.063-0.002-0.094l0.002-0.114c0-0.253-0.041-0.5-0.127-0.74-0.087-0.24-0.226-0.456-0.42-0.649s-0.451-0.348-0.77-0.462-0.712-0.172-1.177-0.175h-0.778c-0.44 0-0.802 0.069-1.085 0.202-0.283 0.132-0.493 0.316-0.629 0.553-0.138 0.237-0.205 0.511-0.203 0.824v0.662 0.475 1.529zm1.489-1.621v-0.383-0.463c0-0.158 0.04-0.278 0.114-0.361 0.072-0.084 0.171-0.141 0.297-0.173 0.125-0.03 0.266-0.042 0.424-0.042h0.371c0.247 0 0.444 0.033 0.591 0.099 0.148 0.066 0.253 0.162 0.318 0.288 0.061 0.12 0.091 0.373 0.094 0.551v0.008 0.015 0.243c0 0.136-0.024 0.243-0.069 0.315-0.184 0.295-1.542 0.293-2.14-0.097" fill="#231f20"/>
			</g>
			<path id="path6186" d="m38.201 86.251h2.296v-5.753h-2.296v5.753zm7.941-9.641h2.15c-1.209 0.602-2.455 1.221-3.737 1.859-1.319 0.656-2.68 1.333-4.08 2.029h-2.274c1.421-0.696 2.804-1.373 4.145-2.029 1.302-0.638 2.568-1.257 3.796-1.859" fill-rule="evenodd" fill="#231f20"/>
			<g id="g6188" transform="translate(43.732 80.498)">
				<path id="path6190" d="m0 0h-1.502c1.361-0.696 2.686-1.373 3.969-2.029 1.247-0.638 2.459-1.257 3.636-1.859h1.376c-1.158 0.602-2.349 1.221-3.576 1.859-1.262 0.656-2.564 1.333-3.903 2.029m0.032 0h-1.503v5.753h1.503v-5.753z" fill-rule="evenodd" fill="#b71e24"/>
			</g>
			<g id="g6192" transform="translate(53.804 80.498)">
				<path id="path6194" d="m0 0h-7.507c1.301-0.696 2.566-1.373 3.792-2.029 1.191-0.638 2.349-1.257 3.473-1.859h6.862c-1.026 0.602-2.088 1.217-3.174 1.859-1.104 0.652-2.257 1.333-3.446 2.029m0.034 0h-7.518v5.753h7.518v-5.753z" fill-rule="evenodd" fill="#231f20"/>
			</g>
			<g id="g6196" transform="translate(58.664 80.498)">
				<path id="path6198" d="m0 0h-2.293c1.149-0.696 2.266-1.378 3.334-2.029 1.051-0.642 2.077-1.257 3.071-1.859h2.168c-0.974 0.602-1.981 1.217-3.012 1.859-1.046 0.651-2.141 1.333-3.268 2.029m0.026 0h-2.295v5.753h2.295v-5.753z" fill-rule="evenodd" fill="#231f20"/>
			</g>
			<g id="g6200" transform="translate(65.461 80.498)">
				<path id="path6202" d="m0 0h-3.086c1.061-0.697 2.088-1.378 3.073-2.029 0.968-0.642 1.915-1.257 2.831-1.859h2.96c-0.896 0.602-1.823 1.217-2.771 1.859-0.963 0.651-1.97 1.332-3.007 2.029m0.035 0h-3.088v5.753h3.088v-5.753z" fill-rule="evenodd" fill="#231f20"/>
			</g>
			<g id="g6204" transform="translate(71.86 80.498)">
				<path id="path6206" d="m0 0h-3.459c0.97-0.697 1.91-1.378 2.81-2.029 0.884-0.642 1.752-1.257 2.59-1.859h3.169c-0.793 0.602-1.614 1.217-2.452 1.859-0.85 0.651-1.74 1.332-2.658 2.029m0.021 0h-3.458v5.753h3.458v-5.753z" fill-rule="evenodd" fill="#b71e24"/>
			</g>
			<g id="g6208" transform="translate(77.866 80.498)">
				<path id="path6210" d="m0 0h-3.459c0.88-0.697 1.735-1.373 2.565-2.029 0.806-0.638 1.59-1.257 2.35-1.859h3.17c-0.715 0.602-1.453 1.221-2.212 1.859-0.781 0.656-1.586 1.332-2.414 2.029m0.03 0h-3.458v5.753h3.458v-5.753z" fill-rule="evenodd" fill="#231f20"/>
			</g>
			<g id="g6212" transform="translate(85.829 80.498)">
				<path id="path6214" d="m0 0h-5.043c0.761-0.697 1.501-1.373 2.219-2.029 0.697-0.637 1.375-1.257 2.031-1.859h4.754c-0.612 0.602-1.244 1.221-1.894 1.859-0.669 0.656-1.358 1.332-2.067 2.029m0.036 0h-5.042v5.753h5.042v-5.753z" fill-rule="evenodd" fill="#231f20"/>
			</g>
			<g id="g6216" transform="translate(95.902 80.498)">
				<path id="path6218" d="m0 0h-7.507c0.67-0.697 1.322-1.373 1.955-2.029 0.615-0.638 1.212-1.257 1.791-1.859h6.88c-0.481 0.602-0.979 1.221-1.491 1.859-0.527 0.656-1.07 1.332-1.628 2.029m0.037 0h-7.518v5.753h7.518v-5.753z" fill-rule="evenodd" fill="#b71e24"/>
			</g>
			<g id="g6220" transform="translate(101.55 80.498)">
				<path id="path6222" d="m0 0h-3.086c0.52-0.697 1.02-1.378 1.498-2.029 0.472-0.642 0.94-1.257 1.39-1.859h2.96c-0.43 0.602-0.88 1.217-1.329 1.859-0.458 0.651-0.937 1.332-1.433 2.029m0.029 0h-3.087v5.753h3.087v-5.753z" fill-rule="evenodd" fill="#231f20"/>
			</g>
			<g id="g6224" transform="translate(107.93 80.498)">
				<path id="path6226" d="m0 0h-3.611c0.431-0.697 0.846-1.378 1.243-2.029 0.389-0.642 0.782-1.257 1.155-1.859h3.31c-0.326 0.602-0.671 1.217-1.012 1.859-0.346 0.652-0.707 1.332-1.085 2.029m0.036 0h-3.609v5.753h3.609v-5.753z" fill-rule="evenodd" fill="#231f20"/>
			</g>
			<g id="g6228" transform="translate(112.37 80.498)">
				<path id="path6230" d="m0 0h-2.026c0.342-0.697 0.675-1.373 0.998-2.029 0.313-0.638 0.619-1.257 0.914-1.859h1.724c-0.248 0.602-0.504 1.221-0.769 1.859-0.273 0.656-0.553 1.332-0.841 2.029m0.026 0h-2.025v5.753h2.025v-5.753z" fill-rule="evenodd" fill="#231f20"/>
			</g>
			<g id="g6232" transform="translate(119.96 80.498)">
				<path id="path6234" d="m0 0h-4.403c0.252-0.697 0.498-1.373 0.736-2.029 0.232-0.638 0.457-1.257 0.675-1.859h4.1c-0.169 0.602-0.347 1.221-0.529 1.859-0.187 0.656-0.381 1.332-0.579 2.029m0.034 0h-4.4v5.753h4.4v-5.753z" fill-rule="evenodd" fill="#231f20"/>
			</g>
			<g id="g6236" transform="translate(127.94 80.498)">
				<path id="path6238" d="m0 0h-5.835c0.13-0.697 0.258-1.374 0.382-2.029 0.12-0.637 0.237-1.257 0.348-1.859h5.546c-0.067 0.602-0.137 1.221-0.211 1.859-0.075 0.655-0.152 1.332-0.23 2.029m0.021 0h-5.834v5.753h5.834v-5.753z" fill-rule="evenodd" fill="#231f20"/>
			</g>
			<g id="g6240" transform="translate(131.99 80.498)">
				<path id="path6242" d="m0 0h-2.293c0.04-0.697 0.08-1.374 0.12-2.029 0.037-0.638 0.074-1.257 0.109-1.859h2.168c-0.015 0.602-0.032 1.221-0.049 1.859-0.019 0.655-0.037 1.332-0.055 2.029m0.033 0h-2.296v5.753h2.296v-5.753z" fill-rule="evenodd" fill="#231f20"/>
			</g>
			<g fill="#231f20" fill-rule="evenodd">
				<path id="path6244" d="m135.94 80.498h-2.296v5.753h2.296v-5.753zm-0.026 0h-2.294c-0.019-0.697-0.035-1.374-0.051-2.029-0.016-0.638-0.031-1.257-0.048-1.859h2.168c0.036 0.602 0.071 1.221 0.107 1.859 0.038 0.655 0.076 1.332 0.118 2.029"/>
				<path id="path6246" d="m140 80.498h-2.295v5.753h2.295v-5.753zm-0.02 0h-2.312c-0.08-0.697-0.155-1.374-0.228-2.029-0.07-0.637-0.14-1.257-0.209-1.859h2.186c0.088 0.602 0.177 1.221 0.269 1.859 0.095 0.655 0.192 1.332 0.294 2.029"/>
				<path id="path6248" d="m145.11 80.498h-3.088v5.753h3.088v-5.753zm-0.031 0h-3.085c-0.141-0.697-0.276-1.374-0.406-2.029-0.126-0.637-0.25-1.257-0.372-1.859h2.961c0.141 0.602 0.284 1.221 0.431 1.859 0.151 0.655 0.308 1.332 0.471 2.029"/>
				<path id="path6250" d="m153.98 80.498h-4.673v5.753h4.673v-5.753zm-0.054 0h-4.669c-0.289-0.697-0.559-1.377-0.819-2.029-0.254-0.64-0.518-1.257-0.768-1.859h4.544c0.27 0.602 0.553 1.218 0.828 1.859 0.281 0.652 0.574 1.332 0.884 2.029"/>
			</g>
			<g fill-rule="evenodd">
				<path id="path6252" d="m164.05 80.498h-6.355v5.753h6.355v-5.753zm-0.035 0h-6.341c-0.379-0.697-0.753-1.37-1.119-2.029-0.352-0.633-0.681-1.257-1.008-1.859h5.878c0.4 0.602 0.803 1.226 1.23 1.859 0.445 0.66 0.898 1.332 1.36 2.029" fill="#b71e24"/>
				<path id="path6254" d="m168.9 80.498h-2.295v5.753h2.295v-5.753zm-0.028 0h-2.293c-0.501-0.697-0.991-1.369-1.472-2.029-0.462-0.633-0.9-1.257-1.332-1.859h2.168c0.451 0.602 0.909 1.227 1.391 1.859 0.503 0.66 1.016 1.332 1.538 2.029" fill="#231f20"/>
				<path id="path6256" d="m176.08 80.498h-5.563v5.753h5.563v-5.753zm-0.033 0h-5.55c-0.558-0.697-1.1-1.374-1.625-2.029-0.509-0.637-1.005-1.257-1.489-1.859h5.086c0.555 0.602 1.125 1.222 1.71 1.859 0.604 0.655 1.226 1.332 1.868 2.029" fill="#b71e24"/>
			</g>
			<g fill="#231f20" fill-rule="evenodd">
				<path id="path6258" d="m181.3 80.498h-2.296v5.753h2.296v-5.753zm-0.022 0h-2.294c-0.709-0.697-1.398-1.374-2.065-2.029-0.647-0.637-1.277-1.257-1.891-1.859h2.168c0.633 0.602 1.284 1.222 1.952 1.859 0.687 0.655 1.397 1.332 2.13 2.029"/>
				<path id="path6260" d="m186.16 80.498h-3.089v5.753h3.089v-5.753zm-0.035 0h-3.085c-0.771-0.697-1.518-1.374-2.242-2.029-0.703-0.637-1.387-1.257-2.053-1.859h2.96c0.685 0.602 1.389 1.222 2.113 1.859 0.745 0.655 1.514 1.332 2.307 2.029"/>
				<path id="path6262" d="m196.08 80.498h-7.841v5.753h7.841v-5.753zm-0.039 0h-7.836c-0.919-0.697-1.814-1.369-2.693-2.029-0.842-0.632-1.654-1.257-2.449-1.859h7.712c0.814 0.602 1.647 1.226 2.51 1.859 0.899 0.66 1.815 1.332 2.756 2.029"/>
			</g>
			<path id="path6264" d="m206.15 80.498h-5.564v5.753h5.564v-5.753zm-0.038 0h-5.55c-1.009-0.697-1.99-1.37-2.955-2.029-0.924-0.633-1.817-1.257-2.69-1.859h5.104c0.944 0.603 1.915 1.222 2.912 1.859 1.027 0.655 2.087 1.332 3.179 2.029" fill-rule="evenodd" fill="#b71e24"/>
			<path id="path6266" d="m214.12 80.498h-5.412v5.753h5.412v-5.753zm-0.043 0h-5.417c-1.131-0.697-2.227-1.374-3.29-2.029-1.033-0.637-2.037-1.256-3.014-1.859h4.964c1.048 0.603 2.124 1.222 3.23 1.859 1.14 0.655 2.315 1.332 3.527 2.029" fill-rule="evenodd" fill="#b71e24"/>
			<g fill="#231f20" fill-rule="evenodd">
				<path id="path6268" d="m218.18 80.498h-1.504v5.753h1.504v-5.753zm-0.037 0h-1.501c-1.25-0.697-2.463-1.374-3.639-2.029-1.14-0.637-2.252-1.256-3.333-1.859h1.377c1.1 0.603 2.231 1.222 3.393 1.859 1.196 0.655 2.43 1.332 3.703 2.029"/>
				<path id="path6270" d="m224.2 80.498h-4.673v5.753h4.673v-5.753zm-0.027 0h-4.67c-1.339-0.697-2.64-1.374-3.9-2.029-1.225-0.637-2.415-1.256-3.574-1.859h4.545c1.177 0.603 2.388 1.222 3.633 1.859 1.282 0.655 2.603 1.332 3.966 2.029"/>
				<path id="path6272" d="m228.26 80.498h-1.504v5.753h1.504v-5.753zh-1.54c-1.4-0.697-2.76-1.374-4.077-2.029-1.279-0.637-2.524-1.256-3.735-1.859h1.411c1.23 0.603 2.496 1.223 3.797 1.859 1.339 0.655 2.72 1.332 4.144 2.029"/>
			</g>
		</g>
	</g>
</svg>
