<svg xmlns="http://www.w3.org/2000/svg" xmlns:xlink="http://www.w3.org/1999/xlink" width="512" zoomAndPan="magnify" viewBox="0 0 384 383.999986" height="512" preserveAspectRatio="xMidYMid meet" version="1.0"><defs><clipPath id="c31f521a9a"><path d="M 79 21 L 364 21 L 364 305 L 79 305 Z M 79 21 " clip-rule="nonzero"/></clipPath><clipPath id="5793850d41"><path d="M 94.1875 21.195312 L 363.0625 290.074219 L 289.878906 363.261719 L 21 94.382812 Z M 94.1875 21.195312 " clip-rule="nonzero"/></clipPath><clipPath id="590affc544"><path d="M 94.554688 20.828125 L 363.433594 289.707031 L 289.71875 363.421875 L 20.839844 94.542969 Z M 94.554688 20.828125 " clip-rule="nonzero"/></clipPath><clipPath id="3372741dcb"><path d="M 251.476562 -136.09375 L 520.355469 132.785156 L 265.796875 387.34375 L -3.082031 118.464844 Z M 251.476562 -136.09375 " clip-rule="nonzero"/></clipPath><clipPath id="5e82703976"><path d="M 21 20 L 305 20 L 305 305 L 21 305 Z M 21 20 " clip-rule="nonzero"/></clipPath><clipPath id="54982e62c9"><path d="M 21.199219 289.808594 L 290.078125 20.933594 L 363.261719 94.117188 L 94.386719 362.996094 Z M 21.199219 289.808594 " clip-rule="nonzero"/></clipPath><clipPath id="4425e15c55"><path d="M 20.832031 289.441406 L 289.707031 20.5625 L 363.425781 94.277344 L 94.546875 363.15625 Z M 20.832031 289.441406 " clip-rule="nonzero"/></clipPath><clipPath id="d4180fecfa"><path d="M -136.089844 132.519531 L 132.785156 -136.359375 L 387.34375 118.199219 L 118.46875 387.078125 Z M -136.089844 132.519531 " clip-rule="nonzero"/></clipPath></defs><g clip-path="url(#c31f521a9a)"><g clip-path="url(#5793850d41)"><g clip-path="url(#590affc544)"><g clip-path="url(#3372741dcb)"><path stroke-linecap="round" transform="matrix(14.151027, 14.151027, -14.142135, 14.142135, 251.481462, -136.089702)" fill="none" stroke-linejoin="round" d="M 2.375008 8.941064 L 16.624885 8.941202 M 2.375008 4.470547 L 16.625023 4.470547 M 2.375008 13.411857 L 16.625023 13.411857 " stroke="#064684" stroke-width="1.6" stroke-opacity="1" stroke-miterlimit="4"/></g></g></g></g><g clip-path="url(#5e82703976)"><g clip-path="url(#54982e62c9)"><g clip-path="url(#4425e15c55)"><g clip-path="url(#d4180fecfa)"><path stroke-linecap="round" transform="matrix(14.151027, -14.151027, 14.142135, 14.142135, -136.086515, 132.514648)" fill="none" stroke-linejoin="round" d="M 2.375034 8.941089 L 16.624911 8.941227 M 2.375034 4.470572 L 16.625049 4.470572 M 2.375034 13.411882 L 16.625049 13.411882 " stroke="#064684" stroke-width="1.6" stroke-opacity="1" stroke-miterlimit="4"/></g></g></g></g></svg>