<svg width="19" height="19" viewBox="0 0 19 19" fill="none" xmlns="http://www.w3.org/2000/svg">
<g clip-path="url(#clip0_7_2)">
<path d="M12.2358 5.80781C12.2092 5.83429 12.1786 5.85787 12.1444 5.8772C11.9388 5.99413 11.6775 5.92204 11.5605 5.71658C11.3713 5.38337 11.1365 5.07567 10.8626 4.80199C10.6954 4.63461 10.6954 4.36364 10.8626 4.19645C11.0298 4.02927 11.301 4.02927 11.4681 4.19645C11.7961 4.52445 12.0777 4.89361 12.305 5.2935C12.4023 5.46474 12.3688 5.67484 12.2358 5.80781Z" fill="#064684"/>
<path d="M10.0951 3.84662C9.97219 3.96935 9.78142 4.00975 9.61424 3.93321C8.61538 3.47688 7.4472 3.42412 6.40891 3.78864C6.18587 3.86692 5.94157 3.7496 5.86329 3.52655C5.78501 3.30351 5.90233 3.05921 6.12537 2.98093C7.38864 2.53716 8.75415 2.59882 9.97006 3.15449C10.1852 3.25268 10.2799 3.50664 10.1817 3.72176C10.1599 3.7695 10.1301 3.81144 10.0951 3.84662Z" fill="#064684"/>
<path d="M7.83241 13.5403C6.30764 13.5403 4.8741 12.9467 3.79599 11.8684C2.71789 10.7903 2.12414 9.35698 2.12414 7.8324C2.12414 6.30763 2.71789 4.87409 3.79599 3.79598C4.8741 2.71788 6.30764 2.12413 7.83241 2.12413C9.35699 2.12413 10.7905 2.71788 11.8684 3.79598C12.9467 4.87409 13.5403 6.30763 13.5403 7.8324C13.5403 9.35698 12.9467 10.7903 11.8684 11.8684C10.7905 12.9467 9.35699 13.5403 7.83241 13.5403ZM18.4097 16.5413L13.5067 12.1587C15.6449 9.36161 15.4356 5.34491 12.8775 2.78688C10.0911 0.000387788 5.57338 0.000387788 2.78689 2.78688C0.000399172 5.57337 0.000399172 10.091 2.78689 12.8775C5.34492 15.4356 9.36163 15.6449 12.1587 13.5067L16.5413 18.4097C17.0477 18.9762 17.9264 19.001 18.4637 18.4635C19.001 17.9263 18.9764 17.0477 18.4097 16.5413Z" fill="#064684"/>
</g>
<defs>
<clipPath id="clip0_7_2">
<rect width="19" height="19" fill="white"/>
</clipPath>
</defs>
</svg>
